<?xml version="1.0" standalone="no"?>
<!DOCTYPE svg PUBLIC "-//W3C//DTD SVG 20010904//EN"
 "http://www.w3.org/TR/2001/REC-SVG-20010904/DTD/svg10.dtd">
<svg version="1.0" xmlns="http://www.w3.org/2000/svg"
 width="512.000000pt" height="512.000000pt" viewBox="0 0 512.000000 512.000000"
 preserveAspectRatio="xMidYMid meet">
<metadata>
Created by potrace 1.14, written by Peter Selinger 2001-2017
</metadata>
<g transform="translate(0.000000,512.000000) scale(0.100000,-0.100000)"
fill="#000000" stroke="none">
<path d="M4196 4308 c3 -4 -1 -8 -8 -8 -7 0 -26 -18 -41 -40 -16 -22 -34 -40
-41 -40 -13 0 -35 -34 -39 -60 -6 -40 -18 -43 -89 -25 -43 11 -67 -3 -90 -53
-12 -26 -22 -48 -23 -50 -1 -1 -12 -5 -24 -7 -24 -4 -60 -42 -61 -62 0 -7 -5
-13 -11 -13 -14 0 -62 -51 -75 -81 -11 -25 -11 -34 1 -80 7 -27 -11 -51 -24
-33 -8 11 -39 31 -69 44 -16 7 -30 7 -43 0 -10 -6 -19 -8 -19 -4 0 4 -11 -3
-24 -15 -14 -13 -22 -29 -20 -36 5 -13 -49 -38 -60 -28 -3 4 -6 1 -6 -5 0 -6
-15 -14 -32 -17 -61 -12 -95 -56 -74 -97 12 -23 12 -25 -3 -21 -10 2 -23 -3
-30 -11 -14 -17 -41 -22 -41 -7 0 9 -32 7 -82 -5 -17 -4 -28 -2 -28 4 0 6 -8
9 -17 7 -10 -1 -23 2 -30 7 -7 5 -17 7 -22 3 -6 -3 -25 2 -42 10 -64 34 -92
27 -122 -30 -8 -16 -36 -52 -62 -78 l-46 -49 -49 24 c-32 15 -50 29 -50 41 0
22 -47 70 -60 62 -6 -3 -10 -1 -10 5 0 8 -6 8 -20 0 -11 -6 -32 -7 -47 -3 -16
4 -34 6 -40 5 -7 -2 -13 1 -13 5 0 5 -12 16 -27 25 -33 19 -106 17 -131 -4
-22 -19 -83 -16 -116 5 -26 18 -61 17 -93 -2 -10 -6 -14 -11 -10 -11 5 0 2 -6
-5 -13 -21 -21 -104 -29 -118 -12 -7 8 -16 12 -21 10 -4 -3 -18 8 -30 24 -12
17 -26 28 -30 25 -4 -2 -10 0 -14 6 -13 21 -62 11 -80 -16 -14 -22 -22 -25
-50 -20 -19 4 -36 2 -40 -4 -3 -6 -9 -8 -13 -6 -8 5 -33 -20 -31 -31 1 -4 -5
-10 -12 -14 -62 -28 -88 -43 -87 -48 2 -19 -5 -20 -27 -5 -21 14 -33 15 -68 6
-36 -9 -58 -11 -125 -15 -21 -1 -72 -56 -72 -78 0 -10 -7 -19 -15 -19 -8 0
-23 -12 -33 -27 -13 -22 -25 -28 -55 -29 -28 -1 -51 -12 -96 -48 -33 -25 -62
-42 -65 -37 -4 5 -27 8 -53 6 -25 -2 -63 3 -84 10 -21 8 -48 12 -59 10 -11 -2
-20 1 -20 6 0 6 -4 8 -8 5 -5 -3 -28 -6 -51 -7 -23 -2 -45 -7 -47 -11 -3 -5
-9 -6 -14 -3 -5 3 -20 0 -32 -7 -13 -7 -25 -13 -28 -13 -38 -6 -199 -150 -240
-214 -8 -13 -24 -33 -35 -45 -12 -11 -21 -23 -21 -26 0 -3 -22 -36 -49 -75
-53 -75 -55 -78 -85 -114 -11 -13 -21 -27 -21 -30 -13 -68 -11 -164 4 -173 7
-5 8 -8 1 -8 -5 0 -10 -11 -10 -25 0 -14 1 -25 3 -25 11 0 176 176 181 193 1
4 10 15 20 25 9 10 24 29 32 42 8 13 30 43 47 66 18 24 30 44 27 44 -3 0 7 11
22 25 15 14 23 25 18 25 -5 1 0 8 11 18 11 9 35 35 54 57 19 22 37 39 40 39 3
-1 12 7 19 18 7 10 17 16 22 13 5 -3 12 1 17 8 7 12 53 31 53 22 0 -2 -12 -21
-26 -42 -15 -23 -21 -39 -14 -41 8 -3 7 -8 -1 -18 -9 -11 -9 -21 0 -40 6 -14
9 -30 6 -35 -3 -5 -1 -18 5 -29 14 -27 1 -45 -40 -53 -35 -8 -106 -103 -90
-122 6 -7 8 -14 5 -17 -6 -6 46 -52 66 -57 8 -2 30 -5 49 -8 37 -4 70 -28 70
-50 0 -7 3 -12 8 -11 4 0 18 -3 32 -9 25 -10 29 -21 12 -32 -5 -3 -14 -21 -20
-39 -9 -27 -9 -34 3 -38 11 -5 12 -11 5 -24 -6 -11 -8 -29 -6 -42 3 -13 5 -29
5 -36 1 -7 5 -11 10 -7 5 3 12 1 15 -4 4 -5 2 -12 -4 -16 -6 -4 -8 -10 -5 -15
3 -5 1 -11 -5 -15 -21 -13 39 -85 71 -85 10 0 20 -4 23 -9 14 -22 92 9 102 41
8 27 22 21 17 -6 -4 -20 3 -30 38 -55 24 -16 52 -37 62 -46 10 -9 28 -20 40
-25 47 -18 62 -23 70 -22 4 1 7 -3 7 -9 0 -5 4 -8 9 -5 10 6 71 -49 71 -64 0
-18 54 -26 148 -21 15 1 26 9 29 21 4 16 15 20 47 22 22 1 48 2 56 4 8 1 23 2
32 3 10 1 26 10 36 21 14 16 28 19 55 16 29 -4 37 -1 42 15 4 10 11 20 16 20
20 3 25 5 39 14 25 17 113 12 132 -7 13 -13 34 -17 93 -16 73 0 97 9 107 38 4
13 27 14 102 5 46 -6 61 -5 70 6 17 22 32 20 46 -6 7 -14 17 -25 22 -25 4 0 8
-7 8 -15 0 -8 5 -15 10 -15 6 0 10 -7 10 -15 0 -8 5 -15 10 -15 6 0 10 -7 10
-15 0 -8 4 -15 9 -15 24 0 -1 -45 -52 -95 -32 -31 -55 -60 -52 -65 4 -6 1 -10
-4 -10 -7 0 -11 -20 -10 -47 1 -52 42 -153 63 -153 6 0 18 -9 26 -20 8 -11 22
-20 32 -20 9 0 19 -4 22 -9 7 -11 109 -5 135 8 12 7 21 16 21 22 0 6 5 7 10 4
6 -3 10 1 10 10 0 8 6 18 13 21 22 8 27 144 5 144 -4 0 -8 5 -8 11 0 7 -31 57
-70 111 -38 55 -70 102 -70 106 0 4 -14 22 -30 41 -17 18 -30 37 -30 42 0 4
-11 20 -25 35 -14 15 -23 29 -21 31 2 3 -3 13 -12 23 -42 46 -44 50 -29 56 8
3 31 -4 51 -14 43 -23 68 -19 93 15 31 43 63 76 63 65 0 -12 38 -27 59 -23 8
1 17 -2 20 -7 9 -15 73 -22 88 -10 7 5 10 14 7 19 -5 9 19 14 41 9 22 -4 50
-11 60 -14 6 -2 29 -7 53 -11 23 -4 45 -12 48 -17 3 -5 12 -4 20 3 11 9 14 9
14 0 0 -7 4 -10 9 -7 5 3 22 -8 40 -24 17 -17 38 -31 46 -31 8 -1 18 -2 23 -4
79 -22 104 -24 125 -13 11 5 17 5 17 -1 0 -6 15 -14 33 -19 25 -7 38 -5 58 9
23 16 28 17 39 4 7 -8 16 -12 21 -9 5 3 9 1 9 -5 0 -6 11 -13 25 -17 14 -3 25
-11 25 -17 0 -6 3 -7 6 -4 4 4 20 -3 36 -14 16 -12 35 -19 42 -16 7 3 27 -3
44 -13 16 -10 33 -16 36 -13 3 4 6 1 6 -5 0 -22 52 8 99 57 l47 49 34 -18 c19
-10 38 -16 42 -14 4 3 24 -2 44 -11 20 -8 46 -13 58 -10 11 2 31 6 44 9 15 3
22 0 22 -10 0 -8 5 -14 10 -14 6 0 10 -5 10 -11 0 -6 6 -16 13 -24 35 -36 66
-89 73 -122 1 -6 -20 -30 -47 -53 -28 -23 -56 -55 -64 -70 -19 -36 -21 -130
-3 -130 4 0 7 -3 7 -7 -5 -32 44 -88 102 -118 44 -23 122 -21 163 5 30 18 62
64 58 83 -1 4 2 7 6 7 4 0 7 16 7 35 0 19 -2 35 -5 35 -3 0 -6 10 -7 21 -1 12
-11 31 -22 43 -12 12 -21 28 -21 35 0 7 -4 9 -10 6 -5 -3 -10 3 -10 14 0 12
-4 21 -10 21 -5 0 -10 7 -10 15 0 8 -4 15 -10 15 -5 0 -10 7 -10 15 0 8 -4 15
-8 15 -4 0 -16 15 -26 33 -11 17 -26 39 -33 47 -13 14 -24 29 -65 95 -7 11
-17 23 -22 26 -15 12 4 28 39 35 24 4 55 26 102 73 38 36 77 67 89 69 11 1 39
-4 62 -12 23 -8 42 -13 42 -11 0 2 18 -2 40 -10 22 -8 40 -12 40 -10 0 3 11 0
26 -5 42 -16 86 -24 145 -24 44 -1 63 4 92 24 53 36 76 105 57 171 -8 26 -7
29 5 19 8 -7 21 -10 29 -7 11 4 13 1 9 -10 -4 -11 -2 -14 5 -9 8 5 12 42 12
109 0 70 -3 97 -10 87 -8 -13 -10 -13 -10 2 0 9 -9 20 -20 23 -11 3 -20 13
-20 21 0 8 -4 14 -10 14 -5 0 -20 16 -33 35 -13 19 -27 32 -30 28 -4 -3 -7 0
-7 8 0 8 -12 27 -26 44 -14 16 -34 44 -45 62 -11 18 -25 33 -30 33 -6 0 -8 4
-4 9 3 5 1 13 -5 16 -6 4 -21 23 -34 43 -13 21 -40 55 -60 77 -20 22 -32 41
-26 43 5 2 18 18 30 36 13 22 31 36 51 40 25 5 73 36 55 36 -3 0 -1 11 4 25 6
16 6 25 0 25 -6 0 -10 5 -10 11 0 6 -9 22 -20 36 -23 30 -26 53 -6 53 7 0 29
13 47 30 19 16 46 35 62 41 15 6 27 15 27 20 0 5 12 28 27 52 15 23 28 51 29
62 4 30 9 49 16 60 3 6 2 20 -2 31 -9 23 -58 66 -69 60 -3 -2 -12 2 -19 10 -7
8 -10 14 -7 14 2 0 -3 9 -13 20 -20 24 -22 42 -7 52 6 5 6 8 -2 8 -7 0 -10 7
-7 15 4 8 2 15 -3 15 -5 0 -9 16 -10 35 -1 19 -8 41 -16 50 -9 8 -14 24 -12
35 2 11 -1 20 -6 20 -6 0 -9 8 -8 18 4 39 -3 53 -32 71 -17 10 -38 18 -47 16
-10 -2 -20 -4 -23 -4 -3 -1 -15 -10 -26 -21 -36 -33 -46 -29 -48 20 0 25 4 55
11 68 12 24 8 65 -6 57 -5 -3 -15 4 -23 15 -7 11 -17 17 -20 13 -4 -3 -7 -1
-7 5 0 13 -32 16 -44 5 -14 -15 -41 -8 -64 15 -21 22 -37 29 -70 31 -8 1 -10
6 -6 14 6 10 4 10 -7 0 -16 -15 -33 -17 -24 -3 3 6 -4 9 -19 8 -13 -1 -22 -6
-20 -10z m229 -1343 c14 -14 25 -28 25 -31 0 -3 18 -27 40 -53 22 -26 40 -51
40 -55 0 -7 10 -20 38 -51 7 -8 11 -15 8 -15 -3 0 2 -9 12 -19 22 -25 32 -38
62 -81 13 -19 32 -41 42 -48 27 -20 24 -44 -4 -33 -47 17 -120 -1 -158 -39
-20 -20 -65 -110 -54 -110 2 0 -3 -11 -12 -25 -12 -19 -23 -24 -43 -21 -14 2
-30 5 -34 5 -5 1 -5 6 -1 13 16 26 12 62 -9 80 -17 15 -18 21 -8 27 7 5 21 7
30 4 20 -5 77 39 78 59 0 7 11 44 23 82 21 64 22 71 7 96 -9 15 -13 31 -9 35
4 5 2 5 -5 1 -7 -4 -14 2 -18 15 -4 11 -20 25 -36 31 -28 9 -29 13 -29 68 0
33 -4 62 -10 65 -10 6 -14 25 -5 25 2 0 16 -11 30 -25z m281 -437 c17 -5 47
-26 66 -46 29 -32 35 -45 35 -85 1 -43 -3 -50 -35 -77 -39 -32 -79 -38 -141
-20 -35 10 -100 72 -102 96 -4 60 3 86 32 115 28 28 85 35 145 17z m-1669
-183 c-6 -11 -10 -22 -9 -25 6 -15 -103 14 -114 31 -3 5 6 14 20 20 14 7 23
16 20 21 -3 4 5 12 18 17 19 7 28 4 49 -17 22 -22 25 -31 16 -47z m-1937 -28
c0 -9 -50 -61 -54 -56 -6 6 36 59 47 59 4 0 7 -2 7 -3z m1453 -418 c39 -11
106 -69 108 -95 3 -27 4 -32 11 -39 4 -4 3 -17 -1 -29 -5 -11 -9 -25 -10 -31
-4 -21 -37 -55 -54 -55 -10 0 -16 -4 -13 -8 4 -6 -38 -8 -54 -2 -3 1 -8 2 -12
1 -5 0 -8 3 -8 9 0 5 -6 7 -13 5 -17 -7 -75 48 -91 87 -25 60 -9 120 37 149
37 22 48 23 100 8z m1669 -24 c12 -3 25 -10 28 -16 4 -6 11 -10 16 -8 5 1 19
-12 30 -29 12 -17 25 -28 29 -24 5 4 5 2 1 -5 -3 -6 -3 -14 2 -17 4 -3 9 -26
11 -51 2 -42 -2 -50 -32 -79 -27 -25 -43 -32 -76 -33 -22 0 -41 4 -41 9 0 5
-4 7 -9 3 -13 -8 -80 53 -94 84 -24 59 -20 90 19 149 5 8 80 30 86 25 5 -2 18
-6 30 -8z"/>
<path d="M1503 1275 c-13 -5 -23 -13 -23 -18 0 -4 -4 -6 -9 -3 -21 13 -121
-91 -121 -126 0 -8 -5 -19 -10 -24 -6 -6 -12 -34 -15 -63 -2 -28 -7 -56 -10
-61 -4 -6 -1 -10 5 -10 6 0 8 -5 4 -12 -7 -11 -10 -53 -4 -60 1 -2 3 -24 4
-50 6 -95 102 -228 159 -219 4 0 7 -3 7 -9 0 -5 13 -8 30 -6 16 2 27 0 24 -5
-7 -11 119 0 131 12 5 5 15 9 22 9 38 0 133 115 117 141 -3 5 -1 9 3 9 5 0 10
11 11 26 2 24 0 25 -46 22 -47 -3 -47 -3 -61 -49 -18 -61 -66 -90 -146 -90
-47 0 -59 4 -89 32 -50 45 -68 101 -69 206 -1 104 4 153 15 153 4 0 7 3 7 8
-6 34 53 96 101 107 47 11 70 13 70 6 0 -3 11 -7 24 -7 26 -2 79 -47 69 -58
-4 -3 -1 -6 6 -6 7 0 10 -3 8 -7 -2 -5 3 -21 12 -38 14 -24 24 -29 56 -29 44
0 50 12 32 71 -12 40 -15 44 -56 90 -22 24 -73 54 -103 59 -5 1 -10 3 -13 4
-16 7 -124 3 -142 -5z"/>
<path d="M2046 1283 c-4 -5 -26 -9 -49 -9 -23 -1 -45 -2 -48 -3 -4 -1 -7 -16
-7 -35 0 -19 -3 -39 -7 -45 -3 -6 -3 -11 2 -11 9 0 8 -83 -1 -106 -3 -8 -2
-14 2 -14 6 0 7 -67 2 -95 -2 -6 -1 -14 0 -20 4 -21 1 -106 -5 -115 -3 -6 -3
-10 2 -10 7 0 9 -65 3 -95 -2 -6 -1 -14 0 -20 1 -5 1 -28 0 -51 l-1 -40 48 1
48 1 0 128 c1 138 1 139 55 136 8 0 34 -1 58 -1 23 0 40 -3 38 -8 -3 -5 1 -14
9 -21 8 -7 15 -18 15 -24 0 -6 11 -28 25 -47 13 -20 23 -38 21 -40 -2 -2 13
-31 33 -64 34 -56 39 -60 71 -59 78 3 74 0 49 42 -13 20 -28 40 -33 44 -6 4
-7 8 -2 8 4 0 0 12 -9 27 -42 63 -84 154 -79 168 3 8 9 13 13 10 11 -6 59 41
77 77 19 36 22 141 5 161 -6 8 -9 16 -6 18 7 8 -47 63 -75 76 -43 21 -92 28
-172 27 -42 0 -75 3 -72 8 6 10 0 11 -10 1z m182 -102 c2 -6 11 -11 20 -11 44
-1 61 -115 25 -164 -19 -25 -61 -48 -74 -40 -5 3 -9 2 -9 -3 0 -10 -136 -10
-146 0 -4 4 -8 56 -9 115 -1 85 2 108 14 113 25 9 175 1 179 -10z"/>
<path d="M2885 1277 c-45 -14 -78 -30 -95 -46 -66 -63 -79 -147 -33 -218 15
-24 32 -43 37 -43 5 0 17 -7 26 -15 10 -9 27 -18 40 -20 12 -2 27 -8 34 -13 6
-5 31 -14 56 -21 25 -7 59 -20 75 -29 17 -9 33 -15 38 -14 4 1 7 -4 7 -12 0
-8 5 -16 12 -18 6 -2 11 -21 10 -44 -1 -30 -9 -45 -33 -66 -17 -15 -35 -25
-39 -23 -5 3 -11 1 -14 -3 -9 -14 -104 -3 -137 16 -27 15 -43 36 -69 92 -8 17
-38 20 -57 6 -8 -5 -13 -4 -13 3 0 7 -4 10 -9 7 -24 -15 -1 -96 39 -136 27
-27 103 -67 118 -63 6 3 12 -1 12 -9 0 -10 3 -9 10 2 5 8 10 11 10 5 0 -5 25
-10 55 -10 30 0 55 3 55 6 0 4 7 6 17 5 23 -4 84 27 110 56 22 24 58 128 44
128 -5 0 -7 11 -6 25 2 14 -1 25 -6 25 -5 0 -9 6 -9 13 -1 40 -118 115 -187
119 -7 1 -13 5 -13 10 0 4 -3 7 -7 7 -17 -3 -73 14 -73 22 0 5 -6 9 -14 9 -7
0 -21 12 -31 26 -19 30 -27 74 -13 74 5 0 7 4 3 9 -6 11 53 58 75 59 8 1 26 3
40 4 40 3 98 -21 119 -50 19 -28 21 -32 21 -56 0 -14 72 -27 89 -16 10 6 9 70
-1 70 -5 0 -8 6 -8 14 0 15 -77 96 -89 94 -3 -1 -19 5 -36 12 -37 15 -119 19
-160 7z"/>
<path d="M3486 1281 c-3 -5 -46 -8 -96 -7 -49 1 -91 0 -92 -3 0 -3 -2 -152 -3
-331 l-2 -326 46 1 46 0 1 123 c1 68 3 125 5 127 2 2 54 4 114 6 61 1 115 6
122 11 7 6 17 7 23 3 5 -3 10 -1 10 5 0 6 4 9 9 6 5 -3 25 10 45 30 33 33 40
46 37 67 0 4 3 7 7 7 12 0 15 119 3 133 -9 11 -11 18 -11 35 0 15 -46 60 -79
76 -37 20 -69 27 -121 30 -19 0 -40 4 -47 9 -6 4 -14 3 -17 -2z m94 -94 c61
-16 92 -57 92 -123 0 -61 -52 -112 -112 -110 -14 1 -28 -3 -32 -9 -5 -6 -8 -4
-8 5 0 13 -1 13 -11 0 -8 -12 -12 -12 -16 -2 -4 10 -8 10 -19 1 -11 -9 -14 -8
-14 2 0 11 -3 11 -11 -1 -8 -12 -12 -12 -16 -2 -4 9 -8 10 -18 2 -10 -8 -15
-8 -21 1 -9 14 -10 222 -1 236 6 9 152 10 187 0z"/>
<path d="M3990 1283 c0 -7 -16 -11 -42 -11 -77 1 -78 0 -69 -25 5 -13 5 -30 0
-39 -6 -10 -6 -19 0 -23 6 -3 7 -16 3 -28 -9 -27 -9 -48 1 -64 4 -7 3 -21 -3
-32 -6 -12 -7 -29 -1 -43 5 -13 5 -33 0 -45 -5 -13 -4 -25 1 -28 5 -3 6 -16 2
-28 -9 -27 -9 -48 1 -64 4 -7 3 -21 -3 -32 -6 -12 -7 -29 -1 -43 5 -13 5 -33
0 -45 -5 -13 -4 -25 1 -28 5 -3 6 -15 1 -28 -15 -40 1 -62 47 -62 23 -1 43 4
45 10 2 5 3 63 2 127 -1 92 2 119 13 123 8 3 18 3 23 -1 5 -3 9 0 9 6 0 6 5 8
13 3 6 -4 29 -8 51 -8 35 0 40 -4 65 -50 14 -28 46 -87 70 -131 l43 -81 49 1
c27 0 49 2 49 4 0 9 -35 79 -57 115 -13 20 -20 37 -16 37 5 0 4 4 -2 8 -10 7
-28 36 -53 85 -13 26 -12 30 12 52 14 13 26 21 26 18 0 -12 40 46 51 73 16 44
13 129 -6 158 -10 14 -14 26 -10 26 5 0 -3 9 -16 20 -13 11 -29 23 -34 28 -25
20 -106 37 -175 36 -43 0 -78 4 -82 10 -5 8 -8 7 -8 -1z m194 -112 c64 -40 69
-124 11 -179 -19 -18 -35 -30 -35 -26 0 3 -7 1 -15 -6 -11 -9 -15 -9 -15 -1 0
7 -5 9 -12 5 -18 -12 -129 -11 -136 1 -4 5 -7 60 -7 121 l0 111 87 -2 c69 -2
94 -7 122 -24z"/>
<path d="M2514 1268 c-5 -7 -8 -509 -5 -634 1 -17 7 -20 41 -20 22 0 40 4 40
9 0 4 4 6 8 3 10 -6 9 54 -1 70 -3 6 -3 14 1 18 10 10 10 76 0 76 -5 0 -6 5
-2 12 12 18 11 58 -1 58 -6 0 -6 3 1 8 9 6 12 54 4 72 -1 3 -1 10 0 15 8 30 6
75 -2 75 -5 0 -6 5 -2 12 12 18 11 58 -1 58 -6 0 -6 3 1 8 9 6 12 54 4 72 -1
3 -1 10 0 15 7 32 6 66 -3 72 -16 10 -77 11 -83 1z"/>
</g>
</svg>
